<svg width="512" height="512" viewBox="0 0 512 512" fill="none" xmlns="http://www.w3.org/2000/svg">
<rect width="512" height="512" rx="50" fill="#FF8E00"/>
<path d="M111.477 435V75.2H119.701V435H111.477ZM129.981 435V75.2H138.205V435H129.981ZM148.485 435V75.2H156.709V435H148.485ZM190.524 435V109.124H299.492C349.864 109.124 378.134 130.198 378.134 169.262C378.134 197.018 364.256 216.55 339.584 225.802C344.21 226.83 348.836 227.344 352.948 228.372C375.05 216.036 388.414 194.962 388.414 168.234C388.414 126.6 354.49 100.386 300.006 100.386H190.524V92.162H300.006C359.116 92.162 396.638 121.974 396.638 168.234C396.638 194.962 384.816 217.064 363.742 231.456C367.34 232.484 370.424 233.512 373.508 235.054C394.582 218.606 406.918 194.962 406.918 167.72C406.918 118.376 363.742 83.424 300.52 83.424H190.524V75.2H300.52C374.022 75.2 415.142 118.376 415.142 167.72C415.142 193.42 403.32 220.148 382.246 238.652C420.282 257.67 440.842 293.136 440.842 331.686C440.842 389.254 395.61 435 314.912 435H227.532V117.348H217.252V435H209.028V117.348H198.748V435H190.524ZM235.756 224.26H299.492C344.724 224.26 369.91 204.214 369.91 169.262C369.91 134.824 344.724 117.348 299.492 117.348H235.756V224.26ZM235.756 426.776H314.912C386.358 426.776 432.618 388.74 432.618 331.686C432.618 273.604 384.302 232.484 314.912 232.484H235.756V241.222H314.398C380.19 241.222 422.338 276.174 422.338 330.658C422.338 384.628 380.704 418.038 314.398 418.038H235.756V426.776ZM235.756 409.814H314.398C376.592 409.814 414.114 380.002 414.114 330.658C414.114 280.8 375.564 249.446 314.398 249.446H235.756V258.184H313.884C371.452 258.184 403.32 283.884 403.32 330.144C403.32 375.89 371.452 401.076 313.884 401.076H235.756V409.814ZM235.756 392.852H313.884C366.312 392.852 395.096 371.778 395.096 330.144C395.096 288.51 366.826 266.408 313.884 266.408H235.756V392.852Z" fill="black"/>
</svg>
